<?xml version="1.0" encoding="UTF-8"?>
<svg version="1.1" xmlns="http://www.w3.org/2000/svg" width="512" height="512">
<path d="M0 0 C4.65166454 3.26043276 7.3022673 7.09929996 9.12890625 12.4921875 C9.37500191 14.934659 9.37500191 14.934659 9.36941528 17.53523254 C9.37353928 19.02222656 9.37353928 19.02222656 9.37774658 20.53926086 C9.36696075 22.15335091 9.36696075 22.15335091 9.35595703 23.80004883 C9.35624908 24.94194672 9.35654114 26.0838446 9.35684204 27.26034546 C9.35544959 31.03171406 9.33989207 34.80288469 9.32421875 38.57421875 C9.32048833 41.1902404 9.31764149 43.80626344 9.31564331 46.42228699 C9.30943334 52.60224083 9.29302909 58.7821237 9.27294433 64.96204633 C9.25057028 71.99950325 9.23958812 79.03696362 9.22955346 86.07444727 C9.20866241 100.54706392 9.17349583 115.01962471 9.12890625 129.4921875 C10.10085938 129.48552567 11.0728125 129.47886383 12.07421875 129.47200012 C21.2545646 129.41106346 30.43486915 129.36615471 39.6153717 129.33675098 C44.33465027 129.32112581 49.05376495 129.29994526 53.77294922 129.26586914 C58.33115235 129.23316313 62.8891983 129.21531082 67.44750977 129.20755577 C69.18256096 129.20203239 70.917604 129.19124668 72.65258789 129.17499733 C75.09149457 129.15307321 77.52975991 129.15022676 79.96875 129.15161133 C80.67869614 129.1408255 81.38864227 129.13003967 82.12010193 129.118927 C89.09830919 129.16151605 95.52245049 131.15494372 100.74609375 135.921875 C105.81469313 141.6777421 108.20219046 147.86905417 108.12890625 155.4921875 C107.42799078 163.7746209 103.14655749 169.85741984 98.62890625 176.6171875 C97.88987861 177.7437104 97.15201472 178.87099757 96.4152832 179.99902344 C94.33613372 183.17433282 92.23461673 186.33442162 90.12890625 189.4921875 C89.25755926 190.80712389 88.38641553 192.12219504 87.515625 193.4375 C86.00894877 195.70152858 84.49722969 197.96153032 82.98046875 200.21875 C79.00464656 206.15435945 75.10378237 212.139668 71.19140625 218.1171875 C70.78451569 218.7387674 70.37762512 219.36034729 69.95840454 220.00076294 C68.28253306 222.56098606 66.60682091 225.12131331 64.93141174 227.68183899 C62.04715937 232.08981473 59.16103338 236.49655762 56.2734375 240.90234375 C55.87832474 241.50520203 55.48321198 242.1080603 55.0761261 242.72918701 C54.28178041 243.9411834 53.48743329 245.15317884 52.69308472 246.36517334 C46.33256998 256.07039789 39.97766571 265.77926755 33.62890625 275.4921875 C26.88295487 285.81276841 20.12971017 296.12854416 13.37084961 306.44067383 C12.57275067 307.65836376 11.77465497 308.87605583 10.9765625 310.09375 C10.57986862 310.69900009 10.18317474 311.30425018 9.77445984 311.92784119 C6.47333233 316.96514844 3.1759602 322.00490717 -0.12068176 327.04515076 C-3.29729302 331.90088891 -6.48086331 336.75203038 -9.66691589 341.60157776 C-11.96598201 345.10381917 -14.24737831 348.61697263 -16.51953125 352.13671875 C-17.57403145 353.75533037 -18.62870342 355.37383011 -19.68359375 356.9921875 C-20.13275146 357.69754639 -20.58190918 358.40290527 -21.04467773 359.12963867 C-24.78074645 364.82435403 -29.06049553 369.61695471 -35.87109375 371.4921875 C-43.88843312 372.26429409 -52.29959165 372.79632848 -58.87109375 367.4921875 C-64.10472742 362.75070746 -67.37148148 357.09691203 -68.14264488 349.9894104 C-68.23839603 347.12022922 -68.24235073 344.26516354 -68.21166992 341.39453125 C-68.21232704 339.76880943 -68.21232704 339.76880943 -68.21299744 338.11024475 C-68.21091772 334.54987181 -68.18762462 330.98997756 -68.1640625 327.4296875 C-68.15846366 324.95247657 -68.15419492 322.47526232 -68.15119934 319.99804688 C-68.13977335 313.49443305 -68.11032523 306.99102185 -68.0770874 300.48748779 C-68.04633822 293.84454721 -68.03268365 287.20158675 -68.01757812 280.55859375 C-67.9854536 267.53637214 -67.93486512 254.51429063 -67.87109375 241.4921875 C-69.32902344 241.50218025 -69.32902344 241.50218025 -70.81640625 241.51237488 C-79.9967521 241.57331154 -89.17705665 241.61822029 -98.3575592 241.64762402 C-103.07683777 241.66324919 -107.79595245 241.68442974 -112.51513672 241.71850586 C-117.07333985 241.75121187 -121.6313858 241.76906418 -126.18969727 241.77681923 C-127.92474846 241.78234261 -129.6597915 241.79312832 -131.39477539 241.80937767 C-133.83368207 241.83130179 -136.27194741 241.83414824 -138.7109375 241.83276367 C-139.42088364 241.8435495 -140.13082977 241.85433533 -140.86228943 241.865448 C-148.82535399 241.81684822 -155.32015901 239.06071794 -161.1015625 233.6328125 C-165.52765911 228.27850578 -167.23735303 221.93691988 -167.05859375 215.0546875 C-165.21227052 203.37295345 -155.5727668 192.30123679 -149.12109375 182.5546875 C-148.19187501 181.14565392 -147.263008 179.73638832 -146.33447266 178.3269043 C-144.4360968 175.44565748 -142.53639149 172.56529443 -140.63574219 169.68554688 C-136.88103734 163.99386778 -133.14542976 158.28971534 -129.41119385 152.58459473 C-127.46105693 149.60539765 -125.50973131 146.62697928 -123.55859375 143.6484375 C-122.7799475 142.45963569 -122.00130166 141.27083361 -121.22265625 140.08203125 C-118.83517643 136.4371454 -116.44694023 132.7927555 -114.05859375 129.1484375 C-106.4904488 117.600038 -98.92548361 106.04959245 -91.37109375 94.4921875 C-84.62369765 84.16939632 -77.86910957 73.85134344 -71.10864258 63.53710938 C-70.30940261 62.31771157 -69.5101676 61.09831052 -68.7109375 59.87890625 C-68.31383072 59.2730368 -67.91672394 58.66716736 -67.50758362 58.04293823 C-64.23807017 53.0538527 -60.9727386 48.06203916 -57.70849609 43.06950378 C-55.69914166 39.99706474 -53.68770018 36.92603174 -51.67138672 33.8581543 C-51.28370117 33.26826218 -50.89601563 32.67837006 -50.49658203 32.07060242 C-49.72778438 30.90088059 -48.95890524 29.73121232 -48.18994141 28.56159973 C-45.70822536 24.78191799 -43.25512328 20.98480929 -40.8125 17.1796875 C-39.58219373 15.28374872 -38.35173507 13.38790881 -37.12109375 11.4921875 C-36.3170813 10.21988281 -36.3170813 10.21988281 -35.49682617 8.921875 C-31.98322293 3.54754198 -28.26354644 -1.20109719 -21.82763672 -3.11572266 C-13.94884636 -4.69462674 -6.98803245 -3.97072791 0 0 Z " fill="#C079E8" transform="translate(295.87109375,70.5078125)"/>
</svg>
