<?xml version="1.0" encoding="UTF-8"?>
<svg version="1.1" xmlns="http://www.w3.org/2000/svg" width="512" height="512">
<path d="M0 0 C0.8769992 -0.00297112 1.75399841 -0.00594224 2.65757334 -0.0090034 C5.60779487 -0.01770224 8.55797588 -0.01919964 11.50820923 -0.02069092 C13.6187397 -0.0253182 15.72926932 -0.03034274 17.83979797 -0.03573608 C23.58150815 -0.04886957 29.32320663 -0.05530674 35.06492949 -0.05974674 C38.64986167 -0.06267557 42.23479065 -0.06677998 45.81972122 -0.07125092 C57.02970693 -0.08492753 68.23968531 -0.09459373 79.44967878 -0.09845281 C92.40224084 -0.10293595 105.35469749 -0.12049512 118.30722749 -0.1494534 C128.31153181 -0.17104617 138.31580642 -0.18115578 148.32013381 -0.18249393 C154.29898796 -0.18354356 160.27774305 -0.18948511 166.25657272 -0.20731354 C171.87899534 -0.22375292 177.50124399 -0.22596983 183.12368202 -0.21717453 C185.18888756 -0.21640197 187.25410229 -0.22077553 189.31928444 -0.23063278 C192.13550995 -0.24328807 194.9511133 -0.23751047 197.76733398 -0.22705078 C198.5872773 -0.23510719 199.40722062 -0.24316359 200.2520107 -0.25146413 C204.85811673 -0.21136887 207.84854977 0.27960469 211.51065063 3.14044189 C213.94521541 6.06191963 214.53850127 7.47776053 214.37783813 11.30059814 C213.31256748 16.01753981 211.35846793 19.30040515 208.76065063 23.32794189 C208.02528076 24.49861206 208.02528076 24.49861206 207.27505493 25.69293213 C205.70202291 28.18544561 204.10966035 30.66452458 202.51065063 33.14044189 C202.00421021 33.92644775 201.49776978 34.71245361 200.97598267 35.52227783 C198.33703495 39.60964511 195.68156785 43.68596922 193.01846313 47.75762939 C189.20815671 53.59087787 185.4503729 59.45721393 181.69815063 65.32794189 C181.0269519 66.37796387 180.35575317 67.42798584 179.66421509 68.50982666 C178.29561845 70.65138919 176.92721111 72.79307271 175.55899048 74.93487549 C172.21251685 80.17196712 168.86138405 85.40607512 165.51065063 90.64044189 C164.1772942 92.72376044 162.84396088 94.80709379 161.51065063 96.89044189 C153.51065063 109.39044189 145.51065063 121.89044189 137.51065063 134.39044189 C136.84952271 135.42346436 136.18839478 136.45648682 135.50723267 137.52081299 C134.18532957 139.58626636 132.86338999 141.65169638 131.54141235 143.71710205 C128.4107852 148.60836854 125.28053853 153.49987734 122.15158081 158.39221191 C120.67001491 160.70868988 119.1882414 163.025035 117.70645142 165.34136963 C116.65790862 166.98064413 115.60966698 168.62011124 114.56143188 170.25958252 C113.9285022 171.24893799 113.29557251 172.23829346 112.64346313 173.25762939 C112.08546021 174.13016357 111.52745728 175.00269775 110.95254517 175.90167236 C109.8211811 177.65829419 108.66965616 179.4019336 107.51065063 181.14044189 C108.71255035 181.14186691 109.91445007 181.14329193 111.152771 181.14476013 C122.48251913 181.16143347 133.81190824 181.20421769 145.14146614 181.27253246 C150.96607736 181.30681534 156.79042593 181.33191453 162.61514282 181.33599854 C168.23693191 181.3402786 173.85812834 181.3687179 179.47973251 181.41387367 C181.62387515 181.42685788 183.76808867 181.43115311 185.91226578 181.42659569 C188.9172277 181.42169645 191.92045301 181.44775322 194.92520142 181.48101807 C195.8106514 181.47239243 196.69610138 181.46376678 197.60838318 181.45487976 C201.82022032 181.53298107 204.66642287 181.81844883 208.04333496 184.46681213 C211.13067394 187.81231083 211.59004927 189.61471981 211.51065063 194.14044189 C209.70409127 198.38783851 207.5472889 201.49065706 204.38565063 204.82794189 C201.22242551 208.24544557 198.18423564 211.70312801 195.26065063 215.32794189 C191.60218929 219.84985128 187.83372347 224.25823088 184.01065063 228.64044189 C180.27649896 232.92250481 176.58605959 237.22376024 173.01065063 241.64044189 C168.89171897 246.72853395 164.60917729 251.66048013 160.30752563 256.59356689 C157.14585833 260.22800689 154.04207592 263.89574008 151.01065063 267.64044189 C146.89171897 272.72853395 142.60917729 277.66048013 138.30752563 282.59356689 C135.14585833 286.22800689 132.04207592 289.89574008 129.01065063 293.64044189 C124.89171897 298.72853395 120.60917729 303.66048013 116.30752563 308.59356689 C113.14585833 312.22800689 110.04207592 315.89574008 107.01065063 319.64044189 C102.89171897 324.72853395 98.60917729 329.66048013 94.30752563 334.59356689 C91.14585833 338.22800689 88.04207592 341.89574008 85.01065063 345.64044189 C80.89171897 350.72853395 76.60917729 355.66048013 72.30752563 360.59356689 C69.14585833 364.22800689 66.04207592 367.89574008 63.01065063 371.64044189 C58.89171897 376.72853395 54.60917729 381.66048013 50.30752563 386.59356689 C47.14585833 390.22800689 44.04207592 393.89574008 41.01065063 397.64044189 C36.89171897 402.72853395 32.60917729 407.66048013 28.30752563 412.59356689 C25.14585833 416.22800689 22.04207592 419.89574008 19.01065063 423.64044189 C14.89171897 428.72853395 10.60917729 433.66048013 6.30752563 438.59356689 C3.14585833 442.22800689 0.04207592 445.89574008 -2.98934937 449.64044189 C-6.56476691 454.05713415 -10.25538739 458.35820331 -13.98934937 462.64044189 C-20.03191145 469.57251819 -25.96519022 476.58130664 -31.59091187 483.85919189 C-33.81980471 486.53753226 -35.10521134 487.35343305 -38.48934937 488.14044189 C-43.06844829 488.14044189 -44.94664225 487.59269783 -48.48934937 484.64044189 C-51.00866202 481.1800032 -50.52328267 478.67741641 -49.95477295 474.60079956 C-49.18393673 470.52594634 -47.96598261 466.64761917 -46.66513062 462.71466064 C-46.37156174 461.80352005 -46.07799286 460.89237946 -45.77552795 459.95362854 C-44.79237622 456.90905269 -43.79705416 453.86859713 -42.80184937 450.82794189 C-42.09205739 448.63744821 -41.38309627 446.44668516 -40.67489624 444.25567627 C-39.12641723 439.4701054 -37.5727185 434.68627109 -36.01522827 429.90362549 C-33.36441962 421.76335692 -30.72874567 413.6182169 -28.09481812 405.47247314 C-27.39883953 403.32032771 -26.70284289 401.16818811 -26.00684357 399.01604939 C-25.53917102 397.56992257 -25.07151461 396.12379053 -24.60387421 394.67765331 C-22.95872405 389.59054083 -21.31200307 384.50393851 -19.66464233 379.4175415 C-13.88956645 361.58446357 -8.13849741 343.74396145 -2.42684937 325.89044189 C-1.94115479 324.3730542 -1.94115479 324.3730542 -1.44564819 322.82501221 C-0.53106683 319.966857 0.38259951 317.10841137 1.29580688 314.24981689 C1.5500795 313.45476746 1.80435211 312.65971802 2.06632996 311.84057617 C4.58317573 303.95163559 7.04521953 296.04556386 9.51065063 288.14044189 C8.79373708 288.13805354 8.07682352 288.13566519 7.33818531 288.13320446 C-10.10513939 288.07407092 -27.5483157 287.99853146 -44.99148846 287.90472698 C-53.42687926 287.85975955 -61.86222775 287.82034709 -70.29769897 287.79400635 C-77.649977 287.77103392 -85.00212123 287.73764441 -92.35429317 287.69174033 C-96.24730561 287.66779783 -100.14018548 287.64907583 -104.03326988 287.64282799 C-107.69820449 287.63678171 -111.36279983 287.6167988 -115.02760887 287.58616638 C-117.01258778 287.57319127 -118.99764593 287.57495734 -120.98266602 287.5771637 C-122.1675209 287.56462555 -123.35237579 287.5520874 -124.57313538 287.53916931 C-125.60093455 287.53456035 -126.62873373 287.52995138 -127.68767834 287.52520275 C-130.94540458 287.07781063 -132.83392695 286.04697812 -135.48934937 284.14044189 C-137.8458637 280.88620782 -137.77357492 278.07627262 -137.48934937 274.14044189 C-136.5285663 271.56219706 -135.52474505 269.19113259 -134.33309937 266.72637939 C-133.9996048 266.0122287 -133.66611023 265.298078 -133.32250977 264.56228638 C-132.60019259 263.01835597 -131.87275994 261.4768106 -131.14077759 259.93743896 C-129.15876801 255.76833724 -127.21408382 251.58179382 -125.26278687 247.39825439 C-124.86075043 246.53921509 -124.45871399 245.68017578 -124.04449463 244.79510498 C-120.45033797 237.1017804 -116.99680504 229.35064545 -113.57723999 221.57849121 C-107.15186059 206.97761482 -100.51049007 192.48636184 -93.77163696 178.027771 C-88.22303895 166.11694034 -82.78946691 154.16383197 -77.48934937 142.14044189 C-71.41366355 128.35766445 -65.13430147 114.67889024 -58.77108765 101.02667236 C-53.2226543 89.11615433 -47.79141474 77.16255519 -42.48934937 65.14044189 C-36.92542448 52.54071721 -31.27420007 39.98325164 -25.51327515 27.472229 C-24.67131961 25.64196804 -23.83175705 23.81060415 -22.99472046 21.97808838 C-21.82805967 19.42604728 -20.65222504 16.87843924 -19.47372437 14.33184814 C-18.95754547 13.19689659 -18.95754547 13.19689659 -18.43093872 12.03901672 C-16.53470338 7.97262539 -14.60691318 4.4382276 -11.48934937 1.14044189 C-7.64036124 -0.14255415 -4.01099809 -0.00421572 0 0 Z " fill="#00ADF6" transform="translate(217.48934936523438,11.85955810546875)"/>
</svg>
