<?xml version="1.0" encoding="UTF-8"?>
<svg version="1.1" xmlns="http://www.w3.org/2000/svg" width="512" height="512">
<path d="M0 0 C0.57733887 0.41894531 1.15467773 0.83789062 1.74951172 1.26953125 C10.39823413 7.58869056 18.28400744 14.58148593 26 22 C26.54688477 22.51965332 27.09376953 23.03930664 27.65722656 23.57470703 C35.94102146 31.47179512 43.18657241 39.81134296 50 49 C50.4237793 49.56299805 50.84755859 50.12599609 51.28417969 50.70605469 C81.52168772 90.98399583 97.20888762 139.97464665 97.25 190.1875 C97.25067474 190.93366577 97.25134949 191.67983154 97.25204468 192.4486084 C97.2329828 205.80902819 96.37152085 218.82828591 94 232 C93.83902832 232.89477051 93.67805664 233.78954102 93.51220703 234.71142578 C87.68391106 265.65570229 76.00150663 296.07302331 58 322 C57.48211914 322.74942871 56.96423828 323.49885742 56.43066406 324.27099609 C48.91900984 335.03419242 40.86050425 344.95907682 31.65527344 354.31396484 C30.06874984 355.92997251 28.50524505 357.56539761 26.9453125 359.20703125 C19.8615146 366.57955821 12.19563123 372.90360857 4 379 C3.43555176 379.42522949 2.87110352 379.85045898 2.28955078 380.28857422 C-28.32797506 403.27160011 -64.26095261 417.89401747 -102 424 C-102.76618652 424.12842285 -103.53237305 424.2568457 -104.32177734 424.38916016 C-128.47627105 428.23987654 -155.00694361 427.31986551 -179 423 C-179.89477051 422.83902832 -180.78954102 422.67805664 -181.71142578 422.51220703 C-212.65570229 416.68391106 -243.07302331 405.00150663 -269 387 C-269.74942871 386.48211914 -270.49885742 385.96423828 -271.27099609 385.43066406 C-282.03419242 377.91900984 -291.95907682 369.86050425 -301.31396484 360.65527344 C-302.92997251 359.06874984 -304.56539761 357.50524505 -306.20703125 355.9453125 C-313.57955821 348.8615146 -319.90360857 341.19563123 -326 333 C-326.63784424 332.15332764 -326.63784424 332.15332764 -327.28857422 331.28955078 C-350.27160011 300.67202494 -364.89401747 264.73904739 -371 227 C-371.19263428 225.85072021 -371.19263428 225.85072021 -371.38916016 224.67822266 C-378.86882968 177.76029563 -369.57924764 128.36644597 -349 86 C-348.64711914 85.2682959 -348.29423828 84.5365918 -347.93066406 83.78271484 C-337.55492344 62.53323673 -323.22306704 44.08503387 -307 27 C-306.49452637 26.46584473 -305.98905273 25.93168945 -305.46826172 25.38134766 C-297.55970643 17.08315977 -289.1847587 9.84656976 -280 3 C-278.57880859 1.92105469 -278.57880859 1.92105469 -277.12890625 0.8203125 C-257.92189228 -13.50828718 -236.58163239 -24.16270843 -214 -32 C-213.31695801 -32.24443848 -212.63391602 -32.48887695 -211.93017578 -32.74072266 C-199.29807601 -37.23320326 -186.18173349 -39.70424247 -173 -42 C-172.23026855 -42.13567383 -171.46053711 -42.27134766 -170.66748047 -42.41113281 C-111.83683304 -52.22776258 -47.75782929 -34.89753464 0 0 Z M-273 55 C-273.77988281 55.72703125 -274.55976563 56.4540625 -275.36328125 57.203125 C-301.45497394 82.22890484 -318.35937428 117.02488767 -326 152 C-326.16371094 152.71220703 -326.32742188 153.42441406 -326.49609375 154.15820312 C-332.08016066 179.42495216 -331.02686563 208.97811648 -325 234 C-324.79101074 234.88848633 -324.58202148 235.77697266 -324.36669922 236.69238281 C-312.34250865 286.32031541 -280.17400908 328.50611947 -236.97802734 355.25195312 C-193.34524907 381.48921408 -141.38784629 389.09760654 -91.9609375 377.27294922 C-41.50658338 364.44160692 0.29401798 332.46269141 27.3828125 288.15625 C38.16020722 269.98187562 45.15361655 250.5132433 50 230 C50.19352051 229.19401367 50.38704102 228.38802734 50.58642578 227.55761719 C56.25069755 202.59586941 55.05651571 172.70125308 49 148 C48.75862305 147.0090332 48.51724609 146.01806641 48.26855469 144.99707031 C35.74599508 95.26911979 3.85109041 52.52746021 -40 26 C-115.96487636 -18.62403624 -209.84833838 -5.2123036 -273 55 Z " fill="#000000" transform="translate(394,65)"/>
<path d="M0 0 C6.38048483 3.79413152 10.58468853 8.85888731 12.48046875 16.08984375 C12.74552704 19.04361522 12.73381015 21.97698221 12.70751953 24.94091797 C12.70781158 25.80986191 12.70810364 26.67880585 12.70840454 27.57408142 C12.70701713 30.43100149 12.69148368 33.28765703 12.67578125 36.14453125 C12.67204903 38.13135638 12.66920304 40.11818336 12.66720581 42.10501099 C12.65958584 47.32300945 12.63995138 52.54089579 12.61779785 57.7588501 C12.59730418 63.08791589 12.58819656 68.41699987 12.578125 73.74609375 C12.55670396 84.19405956 12.52258776 94.64194231 12.48046875 105.08984375 C13.40817581 105.08540253 14.33588287 105.0809613 15.29170227 105.0763855 C24.07380267 105.0361584 32.85587172 105.0057833 41.6380434 104.98621941 C46.15204644 104.97582301 50.66597275 104.96174034 55.17993164 104.93896484 C59.54362419 104.91708762 63.90724336 104.90524403 68.27098656 104.90008926 C69.92818543 104.89642003 71.58538071 104.88925566 73.24254799 104.87838364 C100.34090199 104.70782083 100.34090199 104.70782083 110.453125 113.87890625 C116.47555154 120.2977133 120.59479578 128.10700594 120.48046875 137.08984375 C119.47261283 150.94250169 111.766223 161.43649861 103.89453125 172.328125 C100.13592193 177.53547941 96.52401283 182.83865505 92.91796875 188.15234375 C91.64071618 190.03131199 90.36337383 191.91021919 89.0859375 193.7890625 C88.47411621 194.68931152 87.86229492 195.58956055 87.23193359 196.51708984 C84.74244948 200.17393172 82.23878033 203.82089899 79.73046875 207.46484375 C79.07292603 208.42015991 79.07292603 208.42015991 78.40209961 209.39477539 C77.53185666 210.65877292 76.66149658 211.92268981 75.79101562 213.18652344 C73.51891814 216.48631331 71.24988962 219.78821276 68.98046875 223.08984375 C68.06381589 224.42318657 67.14714924 225.75651992 66.23046875 227.08984375 C65.77671875 227.74984375 65.32296875 228.40984375 64.85546875 229.08984375 C52.48046875 247.08984375 40.10546875 265.08984375 27.73046875 283.08984375 C27.27639648 283.75064941 26.82232422 284.41145508 26.35449219 285.09228516 C25.44235244 286.41835612 24.52895099 287.74356014 23.61425781 289.06787109 C21.2419611 292.50609271 18.89693542 295.95903302 16.58984375 299.44140625 C16.11095703 300.15683594 15.63207031 300.87226563 15.13867188 301.609375 C14.23318887 302.96320397 13.33537807 304.32221299 12.44726562 305.6875 C8.58400983 311.43162994 3.92537845 316.30746332 -2.51953125 319.08984375 C-9.90157111 319.95350605 -16.80360781 320.21717849 -22.90625 315.578125 C-27.67670675 311.17729202 -31.09184498 306.85591803 -31.69571304 300.12649918 C-31.76490334 297.82798038 -31.76697877 295.53824515 -31.74658203 293.23876953 C-31.74687408 292.36982559 -31.74716614 291.50088165 -31.74746704 290.60560608 C-31.74607963 287.74868601 -31.73054618 284.89203047 -31.71484375 282.03515625 C-31.71111153 280.04833112 -31.70826554 278.06150414 -31.70626831 276.07467651 C-31.69864834 270.85667805 -31.67901388 265.63879171 -31.65686035 260.4208374 C-31.63636668 255.09177161 -31.62725906 249.76268763 -31.6171875 244.43359375 C-31.59576646 233.98562794 -31.56165026 223.53774519 -31.51953125 213.08984375 C-32.44723831 213.09428497 -33.37494537 213.0987262 -34.33076477 213.103302 C-43.11286517 213.1435291 -51.89493422 213.1739042 -60.6771059 213.19346809 C-65.19110894 213.20386449 -69.70503525 213.21794716 -74.21899414 213.24072266 C-78.58268669 213.26259988 -82.94630586 213.27444347 -87.31004906 213.27959824 C-88.96724793 213.28326747 -90.62444321 213.29043184 -92.28161049 213.30130386 C-106.42740227 213.39034049 -119.27059231 213.4039437 -130.3359375 203.45703125 C-135.96234088 197.39348876 -139.62586399 189.44455922 -139.51953125 181.08984375 C-138.51167533 167.23718581 -130.8052855 156.74318889 -122.93359375 145.8515625 C-119.17498443 140.64420809 -115.56307533 135.34103245 -111.95703125 130.02734375 C-110.67977868 128.14837551 -109.40243633 126.26946831 -108.125 124.390625 C-107.20726807 123.04025146 -107.20726807 123.04025146 -106.27099609 121.66259766 C-103.78151198 118.00575578 -101.27784283 114.35878851 -98.76953125 110.71484375 C-98.33116943 110.07796631 -97.89280762 109.44108887 -97.44116211 108.78491211 C-96.57091916 107.52091458 -95.70055908 106.25699769 -94.83007812 104.99316406 C-92.55798064 101.69337419 -90.28895212 98.39147474 -88.01953125 95.08984375 C-87.10287839 93.75650093 -86.18621174 92.42316758 -85.26953125 91.08984375 C-84.58890625 90.09984375 -84.58890625 90.09984375 -83.89453125 89.08984375 C-71.51953125 71.08984375 -59.14453125 53.08984375 -46.76953125 35.08984375 C-46.08842285 34.09863525 -46.08842285 34.09863525 -45.39355469 33.08740234 C-44.48141494 31.76133138 -43.56801349 30.43612736 -42.65332031 29.11181641 C-40.2810236 25.67359479 -37.93599792 22.22065448 -35.62890625 18.73828125 C-35.15001953 18.02285156 -34.67113281 17.30742188 -34.17773438 16.5703125 C-33.27225137 15.21648353 -32.37444057 13.85747451 -31.48632812 12.4921875 C-24.09941707 1.50886688 -13.52697955 -4.88649029 0 0 Z M-32.51953125 92.08984375 C-33.58077892 93.4810689 -34.59449195 94.9085493 -35.58984375 96.34765625 C-36.23155518 97.27247803 -36.8732666 98.1972998 -37.53442383 99.15014648 C-38.578927 100.66717163 -38.578927 100.66717163 -39.64453125 102.21484375 C-40.36084717 103.2500415 -41.07716309 104.28523926 -41.81518555 105.35180664 C-47.93327912 114.2062174 -53.99968325 123.09581324 -60.05078125 131.99609375 C-63.12679829 136.51885287 -66.22577358 141.02532762 -69.33203125 145.52734375 C-72.99024438 150.83848695 -76.61658019 156.17013234 -80.20703125 161.52734375 C-80.64184814 162.1730835 -81.07666504 162.81882324 -81.5246582 163.48413086 C-83.60151931 166.07975175 -83.60151931 166.07975175 -84.51953125 169.08984375 C-83.06160156 169.09864311 -83.06160156 169.09864311 -81.57421875 169.10762024 C-72.39367645 169.16494864 -63.21336873 169.23776287 -54.0330658 169.32555866 C-49.31389082 169.37019764 -44.59480089 169.40946793 -39.87548828 169.4362793 C-35.31712396 169.46237698 -30.75908803 169.50282481 -26.20092773 169.55303001 C-24.46594339 169.56965511 -22.73090231 169.58119644 -20.99584961 169.58745766 C-18.55678254 169.59714647 -16.11854738 169.6252613 -13.6796875 169.6574707 C-12.96974136 169.65603561 -12.25979523 169.65460052 -11.52833557 169.65312195 C-5.02564071 169.77378182 0.32681162 171.27119995 5.29296875 175.46484375 C9.4571821 180.46189977 11.53822316 184.63103795 11.68579102 191.12402344 C11.70573624 191.90453064 11.72568146 192.68503784 11.74623108 193.48919678 C11.76294357 194.32162903 11.77965607 195.15406128 11.796875 196.01171875 C11.8176561 196.87170471 11.83843719 197.73169067 11.85984802 198.61773682 C11.92510614 201.35835973 11.98411792 204.0990765 12.04296875 206.83984375 C12.08617656 208.70053045 12.12979157 210.56120773 12.17382812 212.421875 C12.28076317 216.97776898 12.38209726 221.53375715 12.48046875 226.08984375 C15.27111315 223.42720014 17.54351359 220.752486 19.6953125 217.5546875 C20.29206787 216.67304932 20.88882324 215.79141113 21.50366211 214.88305664 C22.1353833 213.94067139 22.76710449 212.99828613 23.41796875 212.02734375 C24.77198323 210.02463668 26.12615244 208.02203422 27.48046875 206.01953125 C28.1559375 205.01760742 28.83140625 204.01568359 29.52734375 202.98339844 C32.30889586 198.86252898 35.11071366 194.75573045 37.91796875 190.65234375 C38.43222412 189.89896729 38.94647949 189.14559082 39.47631836 188.36938477 C42.51341136 183.92933993 45.58081949 179.51204245 48.671875 175.109375 C49.38738525 174.08835693 50.10289551 173.06733887 50.84008789 172.01538086 C52.22734316 170.03822168 53.61823512 168.06360719 55.01342773 166.09204102 C55.65223877 165.18123779 56.2910498 164.27043457 56.94921875 163.33203125 C57.51060547 162.53651855 58.07199219 161.74100586 58.65039062 160.92138672 C61.12884788 157.08665523 63.30132935 153.10031895 65.48046875 149.08984375 C64.50851562 149.08397751 63.5365625 149.07811127 62.53515625 149.07206726 C53.35461395 149.01473886 44.17430623 148.94192463 34.9940033 148.85412884 C30.27482832 148.80948986 25.55573839 148.77021957 20.83642578 148.7434082 C16.27806146 148.71731052 11.72002553 148.67686269 7.16186523 148.62665749 C5.42688089 148.61003239 3.69183981 148.59849106 1.95678711 148.59222984 C-0.48227996 148.58254103 -2.92051512 148.5544262 -5.359375 148.5222168 C-6.06932114 148.52365189 -6.77926727 148.52508698 -7.51072693 148.52656555 C-14.01342179 148.40590568 -19.36587412 146.90848755 -24.33203125 142.71484375 C-28.4962446 137.71778773 -30.57728566 133.54864955 -30.72485352 127.05566406 C-30.75477135 125.88490326 -30.75477135 125.88490326 -30.78529358 124.69049072 C-30.80200607 123.85805847 -30.81871857 123.02562622 -30.8359375 122.16796875 C-30.8567186 121.30798279 -30.87749969 120.44799683 -30.89891052 119.56195068 C-30.96416864 116.82132777 -31.02318042 114.080611 -31.08203125 111.33984375 C-31.12523906 109.47915705 -31.16885407 107.61847977 -31.21289062 105.7578125 C-31.31982567 101.20191852 -31.42115976 96.64593035 -31.51953125 92.08984375 C-31.84953125 92.08984375 -32.17953125 92.08984375 -32.51953125 92.08984375 Z " fill="#000000" transform="translate(265.51953125,96.91015625)"/>
</svg>
